<?xml version="1.0" standalone="no"?>
<!DOCTYPE svg PUBLIC "-//W3C//DTD SVG 20010904//EN"
 "http://www.w3.org/TR/2001/REC-SVG-20010904/DTD/svg10.dtd">
<svg version="1.0" xmlns="http://www.w3.org/2000/svg"
 width="412.000000pt" height="270.000000pt" viewBox="0 0 412.000000 270.000000"
 preserveAspectRatio="xMidYMid meet">
<metadata>
Created by potrace 1.16, written by Peter Selinger 2001-2019
</metadata>
<g transform="translate(0.000000,270.000000) scale(0.100000,-0.100000)"
fill="#000000" stroke="none">
<path d="M1654 2086 c-3 -8 -14 -11 -28 -9 -13 3 -27 0 -30 -6 -4 -6 -15 -11
-24 -11 -55 0 -292 -193 -345 -280 -11 -19 -23 -37 -26 -40 -14 -12 -57 -101
-77 -160 l-23 -65 -103 -16 c-212 -33 -355 -105 -496 -250 -157 -163 -232
-346 -232 -565 l0 -94 70 0 70 0 0 88 c0 193 98 396 254 524 106 87 197 128
344 154 95 16 105 16 190 0 167 -32 262 -81 430 -220 41 -34 95 -79 122 -101
27 -22 92 -76 145 -120 53 -44 115 -95 138 -113 23 -19 56 -46 72 -60 17 -15
65 -55 107 -90 l78 -62 110 0 110 0 -39 51 c-50 67 -66 122 -66 234 0 82 3 96
34 157 52 104 154 184 259 204 17 3 32 10 32 14 0 9 74 5 90 -5 5 -3 10 -1 10
6 0 10 3 10 11 2 6 -6 18 -9 27 -6 11 5 13 3 7 -8 -4 -8 -5 -11 0 -7 4 4 16 3
26 -3 15 -8 17 -6 13 6 -4 9 -9 14 -11 11 -3 -3 -14 4 -26 15 -13 12 -35 19
-58 19 -21 0 -45 3 -54 6 -14 6 -14 8 1 25 16 18 16 19 -14 19 -18 0 -32 5
-32 10 0 6 -12 10 -26 10 -21 0 -25 4 -20 18 4 10 -2 7 -14 -8 -11 -14 -18
-17 -14 -8 4 13 1 15 -15 11 -11 -3 -18 -9 -15 -14 3 -5 -1 -6 -9 -3 -23 8
-128 -49 -185 -101 -101 -92 -151 -200 -161 -343 l-6 -93 -58 43 -58 43 6 50
c20 153 78 266 196 380 48 46 90 81 93 78 3 -4 6 -1 6 5 0 7 6 12 14 12 7 0
25 9 38 20 14 10 28 16 32 13 6 -7 35 25 36 40 0 4 -15 8 -32 8 -66 0 -102 6
-106 19 -3 9 0 10 9 4 11 -6 10 -3 -1 11 -14 16 -13 17 6 11 14 -4 21 -2 21 8
0 16 -16 12 -59 -14 -16 -9 -25 -20 -21 -24 4 -4 0 -4 -9 -1 -16 6 -114 -72
-185 -146 -32 -35 -123 -176 -123 -192 0 -5 -6 -23 -14 -40 -8 -18 -19 -53
-26 -79 l-13 -48 -47 40 c-46 38 -48 42 -40 76 12 51 103 231 142 279 39 48
165 175 174 175 4 0 17 11 29 24 12 13 31 26 41 29 16 4 16 5 -3 6 -12 0 -27
-7 -32 -16 -6 -10 -11 -12 -11 -6 0 7 9 18 19 25 25 15 7 35 -40 43 -42 8 -52
14 -45 31 6 17 -8 18 -34 4 -16 -8 -18 -8 -14 5 5 11 -1 15 -25 15 -24 0 -31
4 -31 20 0 11 6 20 13 20 8 0 7 4 -3 10 -8 5 -29 10 -46 10 -40 0 -50 23 -21
44 22 16 22 17 -3 5 -16 -8 -25 -8 -28 -1 -1 5 -13 8 -25 5 -16 -3 -18 -2 -9
5 40 28 -161 21 -233 -8 -133 -54 -217 -112 -277 -192 -40 -52 -98 -162 -98
-185 0 -9 -9 -8 -35 3 -19 7 -44 14 -56 14 -18 0 -20 4 -15 28 4 15 23 61 44
102 39 79 162 218 225 255 18 10 34 21 37 24 11 13 136 68 173 77 4 1 8 2 10
4 1 1 10 3 20 5 11 2 22 7 25 11 4 4 -1 4 -12 0 -14 -5 -17 -2 -12 9 4 10 -1
15 -14 15 -14 0 -18 5 -13 16 5 14 3 15 -17 4 -18 -10 -24 -9 -31 1 -12 19
-11 29 2 27 6 -2 14 3 16 10 4 9 -3 11 -24 7 -21 -5 -24 -4 -13 4 11 8 11 11
2 11 -7 0 -15 -6 -18 -14z m429 -371 c25 3 40 -2 53 -16 9 -10 14 -22 11 -26
-4 -3 -7 -1 -7 5 0 11 -137 -120 -176 -168 -57 -71 -147 -234 -168 -303 -5
-16 -13 -13 -57 25 -28 23 -94 73 -147 110 -53 37 -97 71 -96 75 3 50 60 148
115 199 89 83 175 115 310 118 61 0 95 5 92 11 -3 6 3 0 15 -11 15 -16 30 -21
55 -19z"/>
<path d="M982 1235 c-162 -32 -325 -159 -395 -306 -44 -94 -67 -187 -67 -272
l0 -67 75 0 75 0 0 79 c0 123 34 206 123 299 104 108 245 158 376 132 96 -19
153 -49 275 -148 296 -238 394 -318 419 -344 15 -15 35 -18 127 -18 61 0 110
3 110 8 0 4 -16 18 -34 32 -18 14 -62 49 -97 79 -90 75 -94 78 -189 156 -96
78 -101 82 -189 156 -35 30 -77 64 -95 77 -17 12 -38 28 -47 36 -17 14 -122
70 -154 81 -99 35 -203 42 -313 20z"/>
<path d="M3128 1027 c7 -8 9 -17 5 -20 -3 -4 -2 -7 3 -7 5 0 10 -10 10 -22 1
-13 6 -50 11 -83 12 -83 -19 -187 -84 -273 l-25 -33 88 3 c86 3 88 4 104 33
46 84 57 152 46 302 0 11 -14 32 -31 44 -16 13 -32 26 -35 29 -8 8 -40 9 -35
1 2 -4 -3 -8 -11 -8 -8 0 -13 6 -10 12 2 7 -7 18 -21 24 -22 10 -25 10 -15 -2z"/>
<path d="M1025 982 c-46 -11 -111 -48 -151 -89 -66 -66 -110 -200 -90 -278 6
-24 9 -25 81 -25 l75 0 -11 27 c-20 52 5 136 53 180 29 27 92 53 127 53 28 0
126 -42 132 -57 2 -5 37 -36 77 -68 40 -33 94 -77 118 -97 l46 -38 109 0 c60
0 109 2 109 5 0 4 -98 86 -208 173 -37 29 -71 58 -77 65 -20 25 -141 112 -180
130 -43 20 -160 30 -210 19z"/>
<path d="M3438 826 c-9 -7 -25 -49 -36 -96 -11 -47 -25 -97 -31 -112 l-11 -28
73 0 73 0 11 33 c22 62 36 157 24 155 -25 -2 -41 4 -41 17 0 9 -8 19 -17 22
-10 4 -20 10 -23 14 -3 4 -13 2 -22 -5z"/>
</g>
</svg>
